<svg width="481" height="670" viewBox="0 0 481 670" fill="none" xmlns="http://www.w3.org/2000/svg">
<path d="M137.853 290.555C137.853 290.555 96.5427 319.935 117.198 326.612C137.853 333.289 151.132 302.574 151.132 302.574L137.853 290.555Z" fill="#060606"/>
<path d="M139.329 279.871L130.477 293.226C130.477 293.226 145.23 293.226 148.181 313.257L159.984 299.903L139.329 279.871Z" fill="#CFCCE0"/>
<path d="M335.554 584.355L337.03 624.419L319.325 633.767L311.949 629.761L313.424 584.355H335.554Z" fill="#060606"/>
<path d="M230.802 573.672L233.753 616.406L192.442 632.432L195.393 609.729C195.393 609.729 207.196 592.368 204.245 573.672H230.802Z" fill="#060606"/>
<path d="M294.243 251.82C294.243 251.82 317.849 307.909 322.275 342.631C326.701 377.353 334.078 469.499 334.078 469.499L348.832 588.355L307.521 593.696L289.817 473.506L249.982 354.65L241.13 473.505L233.753 581.677L195.393 583.013L192.442 470.835L176.213 327.941L185.065 259.833L294.243 251.82Z" fill="#2F2E41"/>
<path d="M316.373 627.087C316.373 627.087 318.793 604.658 336.763 617.208L339.98 615.068L354.733 644.448C354.733 644.448 372.438 667.15 341.455 669.821C310.472 672.492 313.423 644.448 313.423 644.448L310.472 632.429L311.947 624.558L316.373 627.087Z" fill="#2F2E41"/>
<path d="M230.802 600.369C234.434 602.249 237.443 604.974 239.519 608.261C241.594 611.549 242.66 615.279 242.605 619.065C242.605 632.42 241.13 633.755 241.13 633.755L218.999 639.097C218.999 639.097 204.245 637.762 195.393 645.775C186.541 653.787 142.279 659.129 142.279 648.445C142.279 637.762 179.164 620.401 179.164 620.401C179.164 620.401 190.118 603.657 197.919 605.352C205.721 607.046 208.672 609.717 208.672 611.053C208.672 612.388 204.245 621.736 204.245 621.736C204.245 621.736 229.327 616.395 230.802 600.369Z" fill="#2F2E41"/>
<path d="M227.852 87.5559C248.222 87.5559 264.736 72.6083 264.736 54.1695C264.736 35.7308 248.222 20.7832 227.852 20.7832C207.481 20.7832 190.967 35.7308 190.967 54.1695C190.967 72.6083 207.481 87.5559 227.852 87.5559Z" fill="#060606"/>
<path d="M255.146 62.8594L271.375 96.2457L227.113 153.67C227.113 153.67 224.163 90.9039 215.31 80.2203C206.458 69.5366 255.146 62.8594 255.146 62.8594Z" fill="#060606"/>
<path d="M234.49 132.296L241.868 114.935L247.768 116.27L255.146 110.928L265.473 81.5488L280.227 90.8967L299.407 265.841L179.902 268.512L196.131 146.986L210.885 112.264L221.534 99.5204L228.589 118.941L234.49 132.296Z" fill="#CFCCE0"/>
<path d="M268.424 207.092L272.939 86.2891C272.939 86.2891 281.703 86.9007 284.653 90.9071C287.604 94.9134 336.292 102.926 336.292 102.926L327.439 227.123C327.439 227.123 364.324 325.947 351.045 331.289C337.767 336.63 314.161 335.295 314.161 335.295L268.424 207.092Z" fill="#1A1414"/>
<path d="M196.869 191.723L212.52 110.307L177.689 131.627L186.541 190.387L179.164 230.451C179.164 230.451 151.132 341.293 159.984 345.3C168.836 349.306 179.164 345.3 179.164 345.3L196.869 233.122V191.723Z" fill="#1A1414"/>
<path d="M188.016 128.965L177.689 131.636L173.263 185.054L165.886 231.795L130.477 289.219C130.477 289.219 148.181 278.536 155.558 309.251L194.554 247.797L188.016 128.965Z" fill="#1A1414"/>
<path d="M303.095 280.941C303.095 280.941 261.785 310.321 282.44 316.999C303.095 323.676 316.374 292.961 316.374 292.961L303.095 280.941Z" fill="#060606"/>
<path d="M328.177 294.559L314.899 309.249L297.194 281.204L304.571 269.186L328.177 294.559Z" fill="#CFCCE0"/>
<path d="M325.226 107.596L337.029 102.254C337.029 102.254 345.881 112.938 347.357 122.286C348.832 131.634 356.209 143.653 356.209 150.33C356.209 157.007 376.864 219.774 376.864 219.774L329.652 306.578C329.652 306.578 319.324 274.527 297.194 271.857L334.078 225.116L313.423 191.729L325.226 107.596Z" fill="#1A1414"/>
<path d="M258.729 22.3666L265.684 19.8461C265.684 19.8461 251.141 5.35344 230.907 6.61372L236.598 0.942628C236.598 0.942628 222.687 -4.09825 210.041 9.13412C203.393 16.0901 195.702 24.2665 190.907 33.477H183.458L186.567 39.6731L175.686 45.8693L186.854 44.7563C186.188 48.1494 186.086 51.6133 186.551 55.0337C187.03 58.4551 188.959 61.5742 191.93 63.7327V63.7327C191.93 63.7327 200.557 47.5711 200.557 45.0506V51.3518C200.557 51.3518 207.512 45.6807 207.512 41.9001L211.306 46.3109L213.203 39.3796L236.598 46.3109L232.804 40.6399L247.347 42.5302L241.656 35.5989C241.656 35.5989 258.096 43.7904 258.729 50.7217C259.361 57.6529 264.173 64.2206 264.173 64.2206C264.173 64.2206 277.066 31.8182 258.729 22.3666Z" fill="#2F2E41"/>
<path d="M258.097 53.5025C260.378 53.5025 262.228 51.4098 262.228 48.8284C262.228 46.247 260.378 44.1543 258.097 44.1543C255.815 44.1543 253.966 46.247 253.966 48.8284C253.966 51.4098 255.815 53.5025 258.097 53.5025Z" fill="#060606"/>
<path d="M70.7304 161.257C69.372 157.627 52.3374 145.285 62.7758 143.211L71.3359 153.542L110.692 117.92L114.65 121.503L70.7304 161.257Z" fill="white"/>
<path d="M100.424 325.895H41.6407V272.688H81.5297V273.955H43.0411V324.629H99.0242V299.291H100.424V325.895Z" fill="white"/>
<path d="M70.7304 312.023C69.372 308.392 52.3374 296.051 62.7758 293.977L71.3359 304.308L110.692 268.686L114.65 272.268L70.7304 312.023Z" fill="white"/>
<path d="M100.424 476.014H41.6407V422.807H81.5297V424.073H43.0411V474.747H99.0242V449.41H100.424V476.014Z" fill="#C9C8D0"/>
<path d="M70.7304 462.142C69.372 458.512 52.3374 446.17 62.7758 444.096L71.3359 454.427L110.692 418.805L114.65 422.387L70.7304 462.142Z" fill="white"/>
<path d="M100.424 175.145H41.6407V121.938H81.5297V123.204H43.0411V173.879H99.0242V148.541H100.424V175.145Z" fill="#C9C8D0"/>
</svg>
