<svg width="50" height="66" viewBox="0 0 50 66" fill="none" xmlns="http://www.w3.org/2000/svg">
<path d="M6.25 54.7623C6.25 57.7824 8.11875 60.2385 10.4167 60.2385H39.5833C41.8812 60.2385 43.75 57.7824 43.75 54.7623V13.6908C43.75 10.6707 41.8812 8.21466 39.5833 8.21466H35.4167C35.4167 6.70049 34.4854 5.47656 33.3333 5.47656H16.6667C15.5146 5.47656 14.5833 6.70049 14.5833 8.21466H10.4167C8.11875 8.21466 6.25 10.6707 6.25 13.6908V54.7623ZM10.4167 13.6908H14.5833V19.167H35.4167V13.6908H39.5833V54.7623H10.4167V13.6908Z" fill="#E42121"/>
<path d="M29.7749 28.1895L24.9999 34.4652L20.2249 28.1895L17.2791 32.0611L22.0541 38.3368L17.2791 44.6126L20.2249 48.4842L24.9999 42.2085L29.7749 48.4842L32.7207 44.6126L27.9457 38.3368L32.7207 32.0611L29.7749 28.1895Z" fill="#E42121"/>
</svg>
