<svg width="1440" height="299" viewBox="0 0 1440 299" fill="none" xmlns="http://www.w3.org/2000/svg">
<path fill-rule="evenodd" clip-rule="evenodd" d="M0 50.0466L34.6779 33.0498C68.4889 17.0528 136.978 -15.9411 205.467 9.05426C273.955 33.0498 342.444 116.034 411.8 133.031C480.289 150.028 548.778 100.037 617.267 58.0451C685.756 17.0528 754.244 -15.9411 822.733 17.0528C891.222 50.0466 959.711 150.028 1028.2 150.028C1097.56 150.028 1166.04 50.0466 1234.53 17.0528C1303.02 -15.9411 1371.51 17.0528 1405.32 33.0498L1440 50.0466V299H1405.32C1371.51 299 1303.02 299 1234.53 299C1166.04 299 1097.56 299 1028.2 299C959.711 299 891.222 299 822.733 299C754.244 299 685.756 299 617.267 299C548.778 299 480.289 299 411.8 299C342.444 299 273.955 299 205.467 299C136.978 299 68.4889 299 34.6779 299H0V50.0466Z" fill="#D0DBE2" fill-opacity="0.42"/>
</svg>
